<?xml version="1.0" standalone="no"?>
<svg xmlns:xlink="http://www.w3.org/1999/xlink" id="wave" style="transform:rotate(0deg); transition: 0.3s" viewBox="0 0 1440 190" version="1.1" xmlns="http://www.w3.org/2000/svg"><defs><linearGradient id="sw-gradient-0" x1="0" x2="0" y1="1" y2="0"><stop stop-color="rgba(174, 137, 48, 1)" offset="0%"/><stop stop-color="rgba(174, 137, 48, 1)" offset="100%"/></linearGradient></defs><path style="transform:translate(0, 0px); opacity:1" fill="url(#sw-gradient-0)" d="M0,57L120,69.7C240,82,480,108,720,110.8C960,114,1200,95,1440,91.8C1680,89,1920,101,2160,91.8C2400,82,2640,51,2880,47.5C3120,44,3360,70,3600,91.8C3840,114,4080,133,4320,123.5C4560,114,4800,76,5040,63.3C5280,51,5520,63,5760,82.3C6000,101,6240,127,6480,129.8C6720,133,6960,114,7200,95C7440,76,7680,57,7920,50.7C8160,44,8400,51,8640,57C8880,63,9120,70,9360,60.2C9600,51,9840,25,10080,25.3C10320,25,10560,51,10800,66.5C11040,82,11280,89,11520,79.2C11760,70,12000,44,12240,53.8C12480,63,12720,108,12960,104.5C13200,101,13440,51,13680,28.5C13920,6,14160,13,14400,19C14640,25,14880,32,15120,38C15360,44,15600,51,15840,53.8C16080,57,16320,57,16560,76C16800,95,17040,133,17160,152L17280,171L17280,190L17160,190C17040,190,16800,190,16560,190C16320,190,16080,190,15840,190C15600,190,15360,190,15120,190C14880,190,14640,190,14400,190C14160,190,13920,190,13680,190C13440,190,13200,190,12960,190C12720,190,12480,190,12240,190C12000,190,11760,190,11520,190C11280,190,11040,190,10800,190C10560,190,10320,190,10080,190C9840,190,9600,190,9360,190C9120,190,8880,190,8640,190C8400,190,8160,190,7920,190C7680,190,7440,190,7200,190C6960,190,6720,190,6480,190C6240,190,6000,190,5760,190C5520,190,5280,190,5040,190C4800,190,4560,190,4320,190C4080,190,3840,190,3600,190C3360,190,3120,190,2880,190C2640,190,2400,190,2160,190C1920,190,1680,190,1440,190C1200,190,960,190,720,190C480,190,240,190,120,190L0,190Z"/></svg>