<?xml version="1.0" standalone="no"?>
<svg xmlns:xlink="http://www.w3.org/1999/xlink" id="wave" style="transform:rotate(180deg); transition: 0.3s" viewBox="0 0 1440 490" version="1.1" xmlns="http://www.w3.org/2000/svg"><defs><linearGradient id="sw-gradient-0" x1="0" x2="0" y1="1" y2="0"><stop stop-color="rgba(195, 157, 73, 1)" offset="0%"/><stop stop-color="rgba(195, 157, 73, 1)" offset="100%"/></linearGradient></defs><path style="transform:translate(0, 0px); opacity:1" fill="url(#sw-gradient-0)" d="M0,147L60,138.8C120,131,240,114,360,106.2C480,98,600,98,720,122.5C840,147,960,196,1080,220.5C1200,245,1320,245,1440,212.3C1560,180,1680,114,1800,98C1920,82,2040,114,2160,179.7C2280,245,2400,343,2520,334.8C2640,327,2760,212,2880,138.8C3000,65,3120,33,3240,40.8C3360,49,3480,98,3600,98C3720,98,3840,49,3960,24.5C4080,0,4200,0,4320,73.5C4440,147,4560,294,4680,359.3C4800,425,4920,408,5040,383.8C5160,359,5280,327,5400,277.7C5520,229,5640,163,5760,138.8C5880,114,6000,131,6120,155.2C6240,180,6360,212,6480,220.5C6600,229,6720,212,6840,228.7C6960,245,7080,294,7200,310.3C7320,327,7440,310,7560,294C7680,278,7800,261,7920,212.3C8040,163,8160,82,8280,73.5C8400,65,8520,131,8580,163.3L8640,196L8640,490L8580,490C8520,490,8400,490,8280,490C8160,490,8040,490,7920,490C7800,490,7680,490,7560,490C7440,490,7320,490,7200,490C7080,490,6960,490,6840,490C6720,490,6600,490,6480,490C6360,490,6240,490,6120,490C6000,490,5880,490,5760,490C5640,490,5520,490,5400,490C5280,490,5160,490,5040,490C4920,490,4800,490,4680,490C4560,490,4440,490,4320,490C4200,490,4080,490,3960,490C3840,490,3720,490,3600,490C3480,490,3360,490,3240,490C3120,490,3000,490,2880,490C2760,490,2640,490,2520,490C2400,490,2280,490,2160,490C2040,490,1920,490,1800,490C1680,490,1560,490,1440,490C1320,490,1200,490,1080,490C960,490,840,490,720,490C600,490,480,490,360,490C240,490,120,490,60,490L0,490Z"/></svg>